<?xml version="1.0" encoding="utf-8"?>
<!-- Generator: Adobe Illustrator 23.1.1, SVG Export Plug-In . SVG Version: 6.00 Build 0)  -->
<svg version="1.1" id="Capa_1" xmlns="http://www.w3.org/2000/svg" xmlns:xlink="http://www.w3.org/1999/xlink" x="0px" y="0px"
	 viewBox="0 0 460 460" style="enable-background:new 0 0 460 460;" xml:space="preserve">
<style type="text/css">
	.st0{fill:#EA222E;}
	.st1{fill:#666666;}
</style>
<g>
	<path class="st0" d="M257.4,80.3c-55.2-35.9-98-44.6-133.6-46.2c32,8.6,69.8,25.9,112.9,66.9L257.4,80.3z"/>
	<path d="M0.1,11.6c0,0.2,0.1,0.3,0.1,0.5c0,0.2,0.1,0.3,0.1,0.5c0,0.2,0.1,0.3,0.1,0.5c0,0.1,0.1,0.3,0.2,0.4
		c0.1,0.1,0.1,0.3,0.2,0.4C0.8,14,0.9,14.2,1,14.3c0.1,0.1,0.1,0.3,0.2,0.4c0.1,0.1,0.2,0.3,0.3,0.4c0.1,0.1,0.2,0.3,0.2,0.4
		C1.8,15.7,1.9,15.9,2,16c0.1,0.1,0.1,0.2,0.2,0.3c0.2,0.3,0.4,0.5,0.7,0.7l200.5,200.5c2,2,4.5,2.9,7.1,2.9s5.1-1,7.1-2.9
		c3.9-3.9,3.9-10.2,0-14.1L56.5,42.3c6.3,1.2,12.8,2.1,19.6,3.1c40,5.7,89.8,12.9,153.6,76.8c0.1,0.1,0.2,0.2,0.3,0.3
		c0.1,0.1,0.2,0.2,0.3,0.3c0.3,0.2,0.6,0.5,0.9,0.7c0,0,0,0,0.1,0c0.3,0.2,0.7,0.4,1.1,0.6c0.1,0,0.2,0.1,0.2,0.1
		c0.3,0.1,0.6,0.3,1,0.4c0.1,0,0.2,0.1,0.2,0.1c0.4,0.1,0.8,0.2,1.2,0.3c0,0,0,0,0,0c9.2,1.7,20,8,29,17c2.2,2.2,4.3,4.6,6.2,7.1
		c1.8,2.3,4.4,3.7,7.3,3.8c0.2,0,0.4,0,0.6,0c2.6,0,5.2-1,7.1-2.9l26.8-26.8c1.9-1.9,2.9-4.4,2.9-7.1s-1.1-5.2-2.9-7.1l-4.9-4.9
		c7.1,2.2,12.3,3.6,12.8,3.7c5.3,1.4,10.8-1.8,12.2-7.2c1.4-5.3-1.8-10.8-7.2-12.2c-9-2.3-34.8-10.1-46-17.8
		c-0.1-0.1-0.2-0.1-0.3-0.2c-38.1-26.4-74.4-43-110.7-50.9c-31.6-6.8-57.9-6-81-5.2C58.6,15.3,36.2,16,15.7,1.8c0,0-0.1,0-0.1,0
		c-0.2-0.1-0.3-0.2-0.5-0.3c-0.1-0.1-0.2-0.1-0.4-0.2c-0.1-0.1-0.3-0.2-0.5-0.2c-0.1-0.1-0.3-0.1-0.4-0.2c-0.1-0.1-0.3-0.1-0.4-0.2
		c-0.2-0.1-0.3-0.1-0.5-0.2c-0.1,0-0.3-0.1-0.4-0.1c-0.2,0-0.4-0.1-0.5-0.1c-0.1,0-0.2,0-0.4-0.1c-0.2,0-0.4-0.1-0.6-0.1
		c-0.1,0-0.2,0-0.4,0c-0.2,0-0.4,0-0.6,0c-0.1,0-0.2,0-0.4,0C9.6,0,9.4,0,9.3,0C9.1,0,9,0,8.9,0.1c-0.2,0-0.4,0-0.5,0.1
		c-0.1,0-0.3,0-0.4,0.1c-0.2,0-0.3,0.1-0.5,0.1C7.3,0.4,7.2,0.4,7,0.5c-0.2,0-0.3,0.1-0.5,0.2C6.4,0.7,6.3,0.7,6.1,0.8
		C6,0.8,5.8,0.9,5.6,1C5.5,1.1,5.4,1.1,5.3,1.2C5.1,1.3,4.9,1.4,4.7,1.5C4.6,1.6,4.6,1.6,4.5,1.7C3.9,2,3.4,2.4,2.9,2.9c0,0,0,0,0,0
		C2.9,3,2.8,3.1,2.7,3.1C2.6,3.3,2.5,3.4,2.3,3.6c0,0,0,0,0,0C2.2,3.8,2.1,3.9,2,4C1.9,4.2,1.8,4.3,1.7,4.4C1.6,4.6,1.5,4.7,1.4,4.9
		C1.4,5,1.3,5.1,1.2,5.2C1.1,5.4,1.1,5.5,1,5.7C0.9,5.8,0.8,6,0.8,6.1C0.7,6.2,0.7,6.4,0.6,6.5C0.6,6.7,0.5,6.8,0.5,7
		c0,0.1-0.1,0.3-0.1,0.4c0,0.2-0.1,0.3-0.1,0.5c0,0.1-0.1,0.3-0.1,0.4c0,0.2-0.1,0.3-0.1,0.5c0,0.1,0,0.3,0,0.4c0,0.2,0,0.3,0,0.5
		c0,0.1,0,0.3,0,0.4c0,0.2,0,0.3,0,0.5c0,0.1,0,0.3,0,0.4C0.1,11.3,0.1,11.5,0.1,11.6z M278.6,128.2c-0.1-0.1-0.3-0.3-0.4-0.4
		c-7.1-7.1-15-12.8-23.1-16.9l15.3-15.3l20.4,20.4L278.6,128.2z M257.4,80.3L236.7,101c-43.1-41-80.9-58.3-112.9-66.9
		C159.4,35.7,202.2,44.4,257.4,80.3z"/>
	<path class="st0" d="M359,223.3c41,43.1,58.3,80.9,66.9,112.9c-1.5-35.6-10.2-78.4-46.2-133.6L359,223.3z"/>
	<path d="M458.3,455.5c0.1-0.1,0.1-0.2,0.2-0.3c0.1-0.2,0.2-0.3,0.3-0.5c0.1-0.1,0.1-0.3,0.2-0.4c0.1-0.1,0.1-0.3,0.2-0.4
		c0.1-0.2,0.1-0.3,0.2-0.5c0.1-0.1,0.1-0.3,0.1-0.4c0-0.2,0.1-0.3,0.1-0.5c0-0.1,0.1-0.3,0.1-0.4c0-0.2,0.1-0.3,0.1-0.5
		c0-0.2,0-0.3,0.1-0.5c0-0.1,0-0.3,0-0.4c0-0.2,0-0.3,0-0.5c0-0.1,0-0.3,0-0.4c0-0.2,0-0.4,0-0.5c0-0.1,0-0.3,0-0.4
		c0-0.2,0-0.4-0.1-0.5c0-0.1,0-0.3-0.1-0.4c0-0.2-0.1-0.3-0.1-0.5c0-0.1-0.1-0.3-0.1-0.4c0-0.2-0.1-0.3-0.2-0.5
		c-0.1-0.1-0.1-0.3-0.2-0.4c-0.1-0.1-0.1-0.3-0.2-0.4c-0.1-0.2-0.2-0.3-0.2-0.5c-0.1-0.1-0.1-0.2-0.2-0.4c-0.1-0.2-0.2-0.3-0.3-0.5
		c0,0,0-0.1,0-0.1c-14.2-20.6-13.5-42.9-12.6-71.2c0.8-23.2,1.6-49.4-5.2-81c-7.9-36.4-24.5-72.6-50.9-110.7
		c-0.1-0.1-0.1-0.2-0.2-0.3c-7.7-11.2-15.5-37-17.8-46c-1.4-5.3-6.9-8.6-12.2-7.2c-5.3,1.4-8.6,6.8-7.2,12.2
		c0.1,0.5,1.5,5.7,3.7,12.8L351,148c-1.9-1.9-4.4-2.9-7.1-2.9s-5.2,1.1-7.1,2.9l-26.8,26.8c-2,2-3.1,4.8-2.9,7.7
		c0.2,2.9,1.6,5.5,3.8,7.3c2.5,1.9,4.8,4,7.1,6.2c9,9,15.4,19.8,17,29c0,0,0,0,0,0c0.1,0.4,0.2,0.8,0.3,1.2c0,0.1,0.1,0.2,0.1,0.2
		c0.1,0.3,0.2,0.6,0.4,1c0,0.1,0.1,0.1,0.1,0.2c0.2,0.4,0.4,0.7,0.6,1.1c0,0,0,0,0,0c0.2,0.3,0.5,0.6,0.7,0.9
		c0.1,0.1,0.2,0.2,0.2,0.3c0.1,0.1,0.2,0.2,0.3,0.3c63.9,63.9,71,113.6,76.8,153.6c1,6.8,1.9,13.3,3.1,19.6L256.6,242.4
		c-3.9-3.9-10.2-3.9-14.1,0c-3.9,3.9-3.9,10.2,0,14.1l200.5,200.5c0.2,0.2,0.5,0.5,0.8,0.7c1.8,1.5,4.1,2.2,6.3,2.2h0h0
		c0.3,0,0.6,0,0.9,0c0.1,0,0.2,0,0.3,0c0.2,0,0.4-0.1,0.6-0.1c0.1,0,0.2,0,0.3-0.1c0.2,0,0.4-0.1,0.5-0.1c0.1,0,0.2-0.1,0.4-0.1
		c0.2-0.1,0.3-0.1,0.5-0.2c0.1,0,0.3-0.1,0.4-0.2c0.2-0.1,0.3-0.1,0.5-0.2c0.1-0.1,0.3-0.1,0.4-0.2c0.1-0.1,0.3-0.2,0.4-0.3
		c0.1-0.1,0.2-0.1,0.4-0.2c0.2-0.1,0.3-0.2,0.5-0.3c0.1-0.1,0.2-0.2,0.3-0.2c0,0,0,0,0,0c0.2-0.1,0.3-0.3,0.4-0.4
		c0.1-0.1,0.1-0.1,0.2-0.2c0,0,0,0,0,0c0.2-0.2,0.5-0.5,0.7-0.7c0,0,0-0.1,0.1-0.1C458,456,458.2,455.8,458.3,455.5z M349.1,204.9
		c-4-8-9.8-16-16.9-23.1c-0.1-0.1-0.3-0.3-0.4-0.4l12.2-12.2l20.4,20.4L349.1,204.9z M359,223.3l20.7-20.7
		c35.9,55.2,44.6,98,46.2,133.6C417.2,304.2,399.9,266.3,359,223.3z"/>
	<path class="st1" d="M331.8,181.4c0.1,0.1,0.3,0.3,0.4,0.4c7.1,7.1,12.8,15,16.9,23.1l15.3-15.3l-20.4-20.4L331.8,181.4z"/>
	<path class="st1" d="M255.1,110.9c8,4,16,9.8,23.1,16.9c0.1,0.1,0.3,0.3,0.4,0.4l12.2-12.2l-20.4-20.4L255.1,110.9z"/>
	<polygon class="st0" points="366.9,74.3 376.3,83.7 376.3,83.7 376.3,83.7 385.7,93.1 395.1,64.9 	"/>
	<path class="st0" d="M110.8,359.2c-2.6,0-5.1-1-7.1-2.9c-3.9-3.9-3.9-10.2,0-14.1l9.2-9.2l-11-2.4l-24.8,24.8l16.3,3.5
		c3.8,0.8,6.8,3.8,7.7,7.7l3.5,16.3l24.8-24.8l-2.4-11l-9.2,9.2C115.9,358.2,113.4,359.2,110.8,359.2z"/>
	<path d="M143.9,330.2l225.3-225.3l13.8,13.8c1.9,1.9,4.5,2.9,7.1,2.9c0.8,0,1.5-0.1,2.3-0.3c3.4-0.8,6.1-3.3,7.2-6.6l20.8-62.5
		c1.2-3.6,0.3-7.6-2.4-10.2s-6.6-3.6-10.2-2.4l-62.5,20.8c-3.3,1.1-5.8,3.8-6.6,7.2s0.2,6.9,2.7,9.4l13.8,13.8L129.7,316.1
		l-28.9-6.2c-3.3-0.7-6.8,0.3-9.2,2.7L50,354.2c-2.6,2.6-3.6,6.4-2.5,9.9c1,3.5,3.9,6.2,7.5,6.9l28,6l6,28c0.8,3.6,3.4,6.4,6.9,7.5
		c0.9,0.3,1.9,0.4,2.8,0.4c2.6,0,5.2-1,7.1-2.9l41.6-41.6c2.4-2.4,3.4-5.9,2.7-9.2L143.9,330.2z M376.3,83.7
		C376.3,83.7,376.3,83.7,376.3,83.7C376.3,83.7,376.3,83.7,376.3,83.7l-9.4-9.4l28.1-9.4l-9.4,28.1L376.3,83.7z M129.4,358.1
		l-24.8,24.8l-3.5-16.3c-0.8-3.8-3.8-6.8-7.7-7.7l-16.3-3.5l24.8-24.8l11,2.4l-9.2,9.2c-3.9,3.9-3.9,10.2,0,14.1
		c2,2,4.5,2.9,7.1,2.9s5.1-1,7.1-2.9l9.2-9.2L129.4,358.1z"/>
</g>
</svg>
