<svg width="29" height="30" viewBox="0 0 29 30" fill="none" xmlns="http://www.w3.org/2000/svg">
<path d="M10.6364 28.0596C11.3017 28.0596 11.841 27.4974 11.841 26.8038C11.841 26.1102 11.3017 25.548 10.6364 25.548C9.97118 25.548 9.43188 26.1102 9.43188 26.8038C9.43188 27.4974 9.97118 28.0596 10.6364 28.0596Z" stroke="white" stroke-width="2" stroke-linecap="round" stroke-linejoin="round"/>
<path d="M23.8862 28.0596C24.5514 28.0596 25.0907 27.4974 25.0907 26.8038C25.0907 26.1102 24.5514 25.548 23.8862 25.548C23.2209 25.548 22.6816 26.1102 22.6816 26.8038C22.6816 27.4974 23.2209 28.0596 23.8862 28.0596Z" stroke="white" stroke-width="2" stroke-linecap="round" stroke-linejoin="round"/>
<path d="M1 1.6875H5.81818L9.04636 18.5028C9.15651 19.081 9.45821 19.6004 9.89863 19.97C10.3391 20.3396 10.8902 20.536 11.4555 20.5247H23.1636C23.7289 20.536 24.28 20.3396 24.7205 19.97C25.1609 19.6004 25.4626 19.081 25.5727 18.5028L27.5 7.96657H7.02273" stroke="white" stroke-width="2" stroke-linecap="round" stroke-linejoin="round"/>
</svg>
