<svg width="38" height="35" viewBox="0 0 38 35" fill="none" xmlns="http://www.w3.org/2000/svg">
<path d="M10.6362 33.0596C11.3014 33.0596 11.8407 32.4974 11.8407 31.8038C11.8407 31.1102 11.3014 30.548 10.6362 30.548C9.97093 30.548 9.43164 31.1102 9.43164 31.8038C9.43164 32.4974 9.97093 33.0596 10.6362 33.0596Z" stroke="white" stroke-width="2" stroke-linecap="round" stroke-linejoin="round"/>
<path d="M23.8862 33.0596C24.5514 33.0596 25.0907 32.4974 25.0907 31.8038C25.0907 31.1102 24.5514 30.548 23.8862 30.548C23.2209 30.548 22.6816 31.1102 22.6816 31.8038C22.6816 32.4974 23.2209 33.0596 23.8862 33.0596Z" stroke="white" stroke-width="2" stroke-linecap="round" stroke-linejoin="round"/>
<path d="M1 6.6875H5.81818L9.04636 23.5028C9.15651 24.081 9.45821 24.6004 9.89863 24.97C10.3391 25.3396 10.8902 25.536 11.4555 25.5247H23.1636C23.7289 25.536 24.28 25.3396 24.7205 24.97C25.1609 24.6004 25.4626 24.081 25.5727 23.5028L27.5 12.9666H7.02273" stroke="white" stroke-width="2" stroke-linecap="round" stroke-linejoin="round"/>
<circle cx="27.5" cy="10" r="10" fill="#EA222E"/>
<path d="M26.785 10.9023L25.4725 10.5742L25.9002 6.23828H30.0193V7.64453H27.2479L27.0897 9.47852C27.1795 9.41602 27.3123 9.34766 27.4881 9.27344C27.6678 9.19922 27.867 9.16211 28.0858 9.16211C28.4373 9.16211 28.7498 9.22656 29.0233 9.35547C29.2967 9.48438 29.5272 9.67188 29.7147 9.91797C29.9022 10.1641 30.0447 10.4648 30.1424 10.8203C30.2401 11.1758 30.2889 11.5781 30.2889 12.0273C30.2889 12.4062 30.2361 12.7676 30.1307 13.1113C30.0291 13.4551 29.8748 13.7598 29.6678 14.0254C29.4608 14.291 29.201 14.502 28.8885 14.6582C28.576 14.8105 28.2108 14.8867 27.7928 14.8867C27.4764 14.8867 27.1697 14.832 26.8729 14.7227C26.5799 14.6133 26.3162 14.4512 26.0818 14.2363C25.8475 14.0176 25.66 13.7559 25.5193 13.4512C25.3787 13.1426 25.3084 12.791 25.3084 12.3965H26.9315C26.9471 12.627 26.992 12.8281 27.0662 13C27.1443 13.168 27.242 13.2969 27.3592 13.3867C27.4803 13.4766 27.6209 13.5215 27.7811 13.5215C27.9373 13.5215 28.0721 13.4824 28.1854 13.4043C28.2986 13.3223 28.3885 13.209 28.4549 13.0645C28.5213 12.9199 28.5701 12.752 28.6014 12.5605C28.6326 12.3652 28.6483 12.1562 28.6483 11.9336C28.6483 11.707 28.6268 11.502 28.5838 11.3184C28.5447 11.1348 28.4822 10.9785 28.3963 10.8496C28.3143 10.7168 28.2088 10.6152 28.0799 10.5449C27.951 10.4707 27.7986 10.4336 27.6229 10.4336C27.3846 10.4336 27.2049 10.4844 27.0838 10.5859C26.9666 10.6836 26.867 10.7891 26.785 10.9023Z" fill="white"/>
</svg>
