<?xml version="1.0" encoding="iso-8859-1"?>
<!-- Generator: Adobe Illustrator 17.1.0, SVG Export Plug-In . SVG Version: 6.00 Build 0)  -->
<!DOCTYPE svg PUBLIC "-//W3C//DTD SVG 1.1//EN" "http://www.w3.org/Graphics/SVG/1.1/DTD/svg11.dtd">
<svg version="1.1" id="Capa_1" xmlns="http://www.w3.org/2000/svg" xmlns:xlink="http://www.w3.org/1999/xlink" x="0px" y="0px"
	 viewBox="0 0 387.688 387.688" style="enable-background:new 0 0 387.688 387.688;" xml:space="preserve">
<g>
	<path style="fill:#333333;" d="M319.637,52.971c-6.559,9.081-16.615,23.808-25.427,40.035c-0.346,0.638-0.692,1.276-1.029,1.908
		c-0.414,0.776-0.824,1.554-1.231,2.336c-0.384,0.738-0.754,1.468-1.125,2.198c-0.337,0.663-0.678,1.324-1.008,1.99
		c-0.006,0.012-0.013,0.023-0.02,0.035c-0.758,1.529-1.492,3.041-2.188,4.527c-1.7,3.63-5.303,5.762-9.063,5.762
		c-1.42,0-2.862-0.304-4.234-0.946c-3.662-1.715-5.789-5.367-5.751-9.163c-23.169-12.031-48.814-18.377-74.685-18.377
		s-51.517,6.346-74.686,18.377c0.038,3.796-2.088,7.448-5.75,9.163c-1.372,0.643-2.815,0.947-4.235,0.947
		c-3.761,0-7.362-2.13-9.063-5.761c-0.697-1.488-1.431-3.002-2.19-4.531c-0.005-0.011-0.013-0.021-0.018-0.032
		c-0.326-0.658-0.663-1.31-0.996-1.965c-0.379-0.747-0.759-1.494-1.152-2.25c-0.397-0.763-0.799-1.524-1.202-2.282
		c-0.359-0.675-0.728-1.355-1.097-2.036c-0.873-1.607-1.757-3.199-2.65-4.772c-0.205-0.361-0.403-0.719-0.611-1.081
		c-7.944-13.867-16.39-26.166-22.14-34.124C29.76,98.287,20.682,166.446,20.039,217.144c-0.697,54.989,7.837,102.821,12.039,121.249
		c8.632,1.323,16.906,1.993,24.673,1.993c36.549,0,58.067-14.361,78.878-28.249c17.874-11.929,34.757-23.195,58.247-23.195
		c23.489,0,40.375,11.267,58.252,23.195c20.812,13.887,42.333,28.247,78.874,28.25c0.003,0,0.007,0,0.009,0
		c7.742,0,15.989-0.666,24.596-1.982c4.201-18.417,12.736-66.245,12.042-121.234C367.009,166.482,357.938,98.335,319.637,52.971z
		 M226.952,120.348c1.913-5.181,7.663-7.83,12.846-5.917c7.384,2.728,14.582,6.13,21.394,10.113
		c4.768,2.788,6.372,8.913,3.584,13.681c-1.859,3.18-5.205,4.953-8.642,4.953c-1.714,0-3.451-0.441-5.038-1.369
		c-5.805-3.395-11.938-6.293-18.228-8.616C227.688,131.28,225.039,125.529,226.952,120.348z M178.03,253.896
		c-7.268,20.324-34.391,42.26-65.538,42.26c-6.237,0-12.387-0.911-18.278-2.708c-17.456-5.326-31.914-18.768-39.669-36.88
		c-8.727-20.384-8.087-44.196,1.712-63.696c1.282-2.551,3.593-4.432,6.35-5.17c0.424-0.113,10.522-2.773,24.751-2.773
		c24.386,0,68.571,8.032,90.516,61.824C178.803,249.032,178.859,251.576,178.03,253.896z M203.031,126.557
		c-22.997-1.906-46.235,3.468-66.387,15.253c-1.586,0.928-3.324,1.369-5.038,1.369c-3.438,0-6.782-1.772-8.642-4.953
		c-2.788-4.768-1.184-10.893,3.584-13.681c23.685-13.851,51.063-20.165,78.133-17.92c5.504,0.456,9.597,5.288,9.141,10.792
		C213.366,122.92,208.532,127.019,203.031,126.557z M333.208,256.566c-7.755,18.112-22.214,31.555-39.67,36.881
		c-5.892,1.797-12.041,2.708-18.278,2.708c-31.146,0-58.27-21.936-65.537-42.26c-0.829-2.32-0.773-4.864,0.157-7.145
		c21.944-53.792,66.13-61.824,90.515-61.824c14.233,0,24.329,2.66,24.752,2.773c2.757,0.738,5.066,2.619,6.349,5.169
		C341.294,212.37,341.935,236.182,333.208,256.566z"/>
	<path d="M387.647,216.917c-0.465-36.866-4.898-70.255-13.175-99.239c-10.301-36.07-26.636-65.479-48.551-87.409
		c-2.017-2.018-4.795-3.079-7.646-2.915c-2.848,0.163-5.49,1.535-7.263,3.77c-0.773,0.975-15.942,20.195-30.13,44.743
		c-0.02,0.034-0.044,0.065-0.064,0.099c-0.164,0.284-0.315,0.563-0.478,0.847c-0.777,1.354-1.551,2.721-2.319,4.105
		c-0.269,0.485-0.532,0.967-0.797,1.45c-0.175,0.319-0.35,0.634-0.524,0.954c-25.726-13.143-54.147-20.048-82.824-20.048
		s-57.098,6.904-82.823,20.047c-0.212-0.39-0.426-0.775-0.638-1.163c-0.198-0.361-0.395-0.721-0.595-1.084
		c-0.897-1.621-1.803-3.222-2.713-4.803c-0.06-0.103-0.114-0.204-0.174-0.308c-0.007-0.012-0.015-0.022-0.022-0.034
		C92.671,51.267,77.478,32.053,76.705,31.08c-1.773-2.231-4.414-3.6-7.26-3.762c-2.831-0.159-5.624,0.897-7.641,2.913
		c-21.927,21.927-38.271,51.335-48.578,87.408c-8.282,28.987-12.719,62.38-13.186,99.252
		C-0.787,282.173,11.1,338.383,14.327,349.862c1.031,3.665,4.054,6.427,7.797,7.124c12.115,2.256,23.766,3.4,34.627,3.4
		c42.609,0,68.875-17.529,89.98-31.614c16.602-11.079,29.715-19.831,47.145-19.831s30.546,8.751,47.15,19.832
		c21.106,14.083,47.374,31.61,89.975,31.613c0.003,0,0.007,0,0.01,0c10.854,0,22.502-1.144,34.617-3.4
		c4.158-0.774,7.251-4.037,7.977-8.017C377.145,335.711,388.451,280.639,387.647,216.917z M355.607,338.403
		c-8.606,1.317-16.854,1.982-24.596,1.982c-0.002,0-0.006,0-0.009,0c-36.541-0.002-58.063-14.362-78.874-28.25
		c-17.877-11.928-34.763-23.195-58.252-23.195c-23.49,0-40.373,11.267-58.247,23.195c-20.811,13.888-42.329,28.249-78.878,28.249
		c-7.767,0-16.041-0.669-24.673-1.993c-4.202-18.427-12.736-66.259-12.039-121.249c0.643-50.698,9.721-118.857,48.048-164.216
		c5.75,7.957,14.196,20.257,22.14,34.124c0.208,0.362,0.406,0.72,0.611,1.081c0.893,1.573,1.777,3.165,2.65,4.772
		c0.37,0.681,0.738,1.361,1.097,2.036c0.404,0.758,0.805,1.518,1.202,2.282c0.393,0.755,0.772,1.503,1.152,2.25
		c0.332,0.655,0.669,1.307,0.996,1.965c0.005,0.011,0.013,0.021,0.018,0.032c0.759,1.529,1.493,3.043,2.19,4.531
		c1.7,3.63,5.302,5.761,9.063,5.761c1.42,0,2.863-0.304,4.235-0.947c3.662-1.715,5.788-5.367,5.75-9.163
		c23.169-12.031,48.814-18.377,74.686-18.377s51.516,6.346,74.685,18.377c-0.038,3.796,2.089,7.448,5.751,9.163
		c1.372,0.642,2.814,0.946,4.234,0.946c3.761,0,7.363-2.131,9.063-5.762c0.696-1.486,1.429-2.998,2.188-4.527
		c0.006-0.012,0.014-0.023,0.02-0.035c0.33-0.666,0.671-1.327,1.008-1.99c0.371-0.73,0.741-1.46,1.125-2.198
		c0.406-0.781,0.817-1.56,1.231-2.336c0.337-0.633,0.682-1.27,1.029-1.908c8.812-16.227,18.868-30.954,25.427-40.035
		c38.301,45.365,47.372,113.511,48.012,164.198C368.343,272.158,359.808,319.986,355.607,338.403z"/>
	<path d="M325.147,187.7c-0.423-0.113-10.519-2.773-24.752-2.773c-24.385,0-68.57,8.032-90.515,61.824
		c-0.931,2.281-0.986,4.825-0.157,7.145c7.268,20.324,34.391,42.26,65.537,42.26c6.237,0,12.387-0.911,18.278-2.708
		c17.456-5.326,31.915-18.769,39.67-36.881c8.727-20.384,8.086-44.196-1.713-63.696C330.213,190.32,327.904,188.439,325.147,187.7z
		 M230.054,250.461c17.027-37.509,47.448-45.533,70.341-45.533c6.349,0,11.665,0.64,15.147,1.212
		c5.29,13.417,5.085,28.995-0.72,42.555c-5.51,12.868-15.141,21.968-27.12,25.623c-3.998,1.22-8.185,1.838-12.442,1.838
		C254.732,276.156,236.407,262.115,230.054,250.461z"/>
	<path d="M87.357,184.928c-14.229,0-24.327,2.66-24.751,2.773c-2.757,0.738-5.067,2.619-6.35,5.17
		c-9.799,19.5-10.438,43.312-1.712,63.696c7.755,18.112,22.213,31.555,39.669,36.88c5.892,1.797,12.041,2.708,18.278,2.708
		c31.147,0,58.271-21.936,65.538-42.26c0.829-2.32,0.773-4.864-0.157-7.145C155.928,192.96,111.742,184.928,87.357,184.928z
		 M112.491,276.156c-4.258,0-8.444-0.619-12.442-1.838c-11.979-3.655-21.609-12.754-27.119-25.622
		c-5.806-13.561-6.011-29.137-0.721-42.554c3.488-0.574,8.803-1.213,15.147-1.213c22.894,0,53.314,8.024,70.342,45.533
		C151.345,262.115,133.02,276.156,112.491,276.156z"/>
	<path style="fill:#666666;" d="M213.822,117.417c0.456-5.504-3.637-10.335-9.141-10.792c-27.07-2.245-54.448,4.069-78.133,17.92
		c-4.768,2.788-6.372,8.913-3.584,13.681c1.859,3.181,5.204,4.954,8.642,4.953c1.714,0,3.452-0.441,5.038-1.369
		c20.151-11.785,43.39-17.159,66.387-15.253C208.532,127.019,213.366,122.92,213.822,117.417z"/>
	<path style="fill:#666666;" d="M232.868,133.194c6.29,2.323,12.423,5.222,18.228,8.616c1.587,0.928,3.324,1.369,5.038,1.369
		c3.437,0,6.782-1.773,8.642-4.953c2.788-4.768,1.184-10.893-3.584-13.681c-6.812-3.983-14.01-7.386-21.394-10.113
		c-5.183-1.914-10.933,0.736-12.846,5.917S227.688,131.28,232.868,133.194z"/>
</g>
<g>
</g>
<g>
</g>
<g>
</g>
<g>
</g>
<g>
</g>
<g>
</g>
<g>
</g>
<g>
</g>
<g>
</g>
<g>
</g>
<g>
</g>
<g>
</g>
<g>
</g>
<g>
</g>
<g>
</g>
</svg>
