<?xml version="1.0" encoding="iso-8859-1"?>
<!-- Generator: Adobe Illustrator 17.1.0, SVG Export Plug-In . SVG Version: 6.00 Build 0)  -->
<!DOCTYPE svg PUBLIC "-//W3C//DTD SVG 1.1//EN" "http://www.w3.org/Graphics/SVG/1.1/DTD/svg11.dtd">
<svg version="1.1" id="Capa_1" xmlns="http://www.w3.org/2000/svg" xmlns:xlink="http://www.w3.org/1999/xlink" x="0px" y="0px"
	 viewBox="0 0 380.9 380.9" style="enable-background:new 0 0 380.9 380.9;" xml:space="preserve">
<g>
	<g>
		<path style="fill:#DE021B;" d="M316.358,119.561l10.561-62.137c3.35-19.713-5.83-24.638-20.401-10.945l-39.197,36.836
			c-23.799-11.9-50.039-18.25-76.871-18.25s-53.072,6.35-76.871,18.25L74.383,46.479c-14.571-13.693-23.752-8.768-20.401,10.945
			l10.561,62.137C31.444,154.127,10,203.726,10,264.272c0,25.314,3.748,50.561,10.528,74.674
			c99.144,18.461,117.608-48.214,169.922-48.214s70.778,66.674,169.922,48.214c6.781-24.113,10.528-49.36,10.528-74.674
			C370.9,203.726,349.456,154.127,316.358,119.561z M101.689,262.473c-21.338-8.949-33.595-30.424-31.84-52.297l91.46,38.359
			C146.935,265.116,123.027,271.422,101.689,262.473z M279.211,262.473c-21.338,8.949-45.246,2.643-59.62-13.938l91.46-38.359
			C312.806,232.049,300.549,253.523,279.211,262.473z"/>
		<path d="M327.586,352.177c-0.004,0-0.006,0-0.01,0c-42.6-0.003-68.868-17.53-89.974-31.613
			c-16.605-11.08-29.722-19.832-47.151-19.832s-30.543,8.751-47.146,19.831c-21.105,14.084-47.371,31.614-89.98,31.614
			c-10.861,0-22.511-1.144-34.626-3.4c-3.743-0.697-6.765-3.459-7.796-7.124C3.668,315.929,0,289.894,0,264.272
			c0-57.301,19.085-109.606,53.855-147.911l-9.732-57.262c-1.878-11.051-0.541-19.365,3.975-24.713
			c3.083-3.652,7.459-5.663,12.322-5.663c6.418,0,13.42,3.522,20.812,10.468l34.22,32.159
			c23.581-10.672,49.361-16.286,74.999-16.286s51.418,5.614,74.999,16.286l34.221-32.159c7.391-6.946,14.394-10.469,20.812-10.469
			c4.862,0,9.238,2.011,12.321,5.662c4.516,5.348,5.853,13.663,3.975,24.713l-9.732,57.262
			c34.77,38.306,53.855,90.61,53.855,147.911c0,25.622-3.668,51.657-10.902,77.381c-1.031,3.665-4.053,6.427-7.796,7.124
			C350.087,351.033,338.439,352.177,327.586,352.177z M190.45,280.732c23.49,0,40.375,11.267,58.252,23.195
			c20.813,13.887,42.333,28.247,78.875,28.25c0.003,0,0.006,0,0.009,0c7.801,0,16.117-0.676,24.795-2.013
			c5.655-21.974,8.519-44.108,8.519-65.892c0-53.997-18.384-102.933-51.765-137.795c-2.188-2.286-3.166-5.472-2.636-8.591
			l10.561-62.138c0.396-2.334,0.537-4.122,0.551-5.461c-1.107,0.752-2.52,1.857-4.245,3.479l-39.197,36.836
			c-3.054,2.869-7.572,3.531-11.321,1.657c-22.495-11.249-47.53-17.194-72.398-17.194s-49.903,5.946-72.398,17.194
			c-3.749,1.874-8.267,1.213-11.321-1.657L67.535,53.766c-1.726-1.622-3.138-2.727-4.246-3.479c0.014,1.338,0.154,3.126,0.551,5.461
			L74.4,117.886c0.53,3.119-0.447,6.306-2.636,8.591C38.384,161.339,20,210.275,20,264.272c0,21.783,2.864,43.918,8.519,65.892
			c8.679,1.337,16.999,2.013,24.805,2.013c36.548,0,58.068-14.361,78.878-28.25C150.077,291.999,166.959,280.732,190.45,280.732z
			 M259.059,276.546c-18.062,0-35.201-7.822-47.023-21.461c-2.1-2.422-2.911-5.705-2.181-8.827s2.913-5.705,5.87-6.944
			l91.459-38.359c2.956-1.241,6.328-0.987,9.067,0.68c2.738,1.667,4.512,4.546,4.768,7.742c2.155,26.853-13.092,51.896-37.94,62.318
			C275.404,274.913,267.322,276.546,259.059,276.546z M238.744,251.346c6.155,3.375,13.127,5.2,20.315,5.2
			c5.593,0,11.072-1.108,16.285-3.295c12.136-5.09,20.896-15.321,24.306-27.449L238.744,251.346z M121.841,276.546
			c-8.263,0-16.345-1.632-24.02-4.852c-24.848-10.422-40.095-35.465-37.94-62.318c0.256-3.196,2.03-6.075,4.768-7.742
			c2.739-1.667,6.11-1.92,9.067-0.68l91.459,38.359c2.957,1.24,5.14,3.822,5.87,6.944s-0.081,6.405-2.181,8.827
			C157.042,268.724,139.903,276.546,121.841,276.546z M81.251,225.802c3.41,12.128,12.17,22.359,24.306,27.449
			c5.213,2.187,10.692,3.295,16.285,3.295c7.188,0,14.16-1.825,20.315-5.2L81.251,225.802z"/>
	</g>
	<path d="M54.746,140.637c-2.219,0-4.452-0.735-6.307-2.245c-4.283-3.487-4.929-9.786-1.442-14.068
		c10.154-12.474,21.782-23.594,34.56-33.05c4.44-3.286,10.702-2.35,13.987,2.089c3.286,4.439,2.35,10.702-2.089,13.987
		c-11.435,8.463-21.847,18.421-30.947,29.6C60.53,139.378,57.649,140.637,54.746,140.637z"/>
	<path d="M326.155,140.637c-2.904,0-5.785-1.259-7.761-3.688c-9.1-11.178-19.512-21.137-30.947-29.6
		c-4.439-3.285-5.375-9.547-2.089-13.987c3.286-4.439,9.549-5.375,13.987-2.089c12.778,9.456,24.406,20.576,34.56,33.05
		c3.486,4.283,2.841,10.582-1.442,14.068C330.607,139.902,328.374,140.637,326.155,140.637z"/>
</g>
<g>
</g>
<g>
</g>
<g>
</g>
<g>
</g>
<g>
</g>
<g>
</g>
<g>
</g>
<g>
</g>
<g>
</g>
<g>
</g>
<g>
</g>
<g>
</g>
<g>
</g>
<g>
</g>
<g>
</g>
</svg>
