<svg width="71" height="71" viewBox="0 0 71 71" fill="none" xmlns="http://www.w3.org/2000/svg">
<circle cx="35.5" cy="35.5" r="35.5" fill="#156DFF"/>
<path d="M53.0591 25.2517C52.0752 24.3012 50.9069 23.5473 49.6211 23.0329C48.3353 22.5185 46.9571 22.2537 45.5653 22.2537C44.1734 22.2537 42.7952 22.5185 41.5094 23.0329C40.2236 23.5473 39.0554 24.3012 38.0714 25.2517L36.0294 27.2232L33.9874 25.2517C31.9999 23.3327 29.3042 22.2547 26.4935 22.2547C23.6827 22.2547 20.9871 23.3327 18.9996 25.2517C17.0121 27.1706 15.8956 29.7732 15.8956 32.4869C15.8956 35.2006 17.0121 37.8032 18.9996 39.7221L21.0417 41.6937L36.0294 56.1642L51.0171 41.6937L53.0591 39.7221C54.0435 38.7721 54.8244 37.6442 55.3572 36.4028C55.89 35.1613 56.1642 33.8307 56.1642 32.4869C56.1642 31.1431 55.89 29.8125 55.3572 28.571C54.8244 27.3296 54.0435 26.2016 53.0591 25.2517Z" fill="white"/>
</svg>
