<svg width="23" height="20" viewBox="0 0 23 20" fill="none" xmlns="http://www.w3.org/2000/svg">
<path d="M20.4224 2.61183C19.901 2.10083 19.282 1.69547 18.6006 1.41891C17.9193 1.14235 17.1889 1 16.4514 1C15.7139 1 14.9835 1.14235 14.3022 1.41891C13.6208 1.69547 13.0018 2.10083 12.4804 2.61183L11.3983 3.67183L10.3162 2.61183C9.26301 1.58013 7.83458 1.00053 6.34515 1.00053C4.85572 1.00053 3.42729 1.58013 2.37411 2.61183C1.32092 3.64352 0.729248 5.04279 0.729248 6.50183C0.729248 7.96086 1.32092 9.36013 2.37411 10.3918L3.45619 11.4518L11.3983 19.2318L19.3404 11.4518L20.4224 10.3918C20.9441 9.88107 21.3579 9.27464 21.6402 8.60718C21.9225 7.93972 22.0678 7.22431 22.0678 6.50183C22.0678 5.77934 21.9225 5.06393 21.6402 4.39647C21.3579 3.72901 20.9441 3.12258 20.4224 2.61183Z" stroke="#ED1B24" stroke-linecap="round" stroke-linejoin="round"/>
</svg>
