<svg width="22" height="19" viewBox="0 0 22 19" fill="none" xmlns="http://www.w3.org/2000/svg">
<path d="M19.6932 1.61183C19.1718 1.10083 18.5527 0.695472 17.8714 0.41891C17.19 0.142347 16.4597 0 15.7222 0C14.9846 0 14.2543 0.142347 13.5729 0.41891C12.8916 0.695472 12.2725 1.10083 11.7511 1.61183L10.669 2.67183L9.58694 1.61183C8.53376 0.580134 7.10533 0.000534762 5.6159 0.000534773C4.12647 0.000534784 2.69805 0.580134 1.64486 1.61183C0.591674 2.64352 1.10971e-08 4.04279 0 5.50183C-1.10971e-08 6.96086 0.591674 8.36013 1.64486 9.39183L2.72694 10.4518L10.669 18.2318L18.6111 10.4518L19.6932 9.39183C20.2148 8.88107 20.6286 8.27464 20.911 7.60718C21.1933 6.93972 21.3386 6.22431 21.3386 5.50183C21.3386 4.77934 21.1933 4.06393 20.911 3.39647C20.6286 2.72901 20.2148 2.12258 19.6932 1.61183Z" fill="#EA222E"/>
</svg>
