<svg width="625" height="157" viewBox="0 0 625 157" fill="none" xmlns="http://www.w3.org/2000/svg">
<rect x="68.261" y="105.804" width="488.065" height="34.1304" fill="#EA222E"/>
<rect x="68.261" y="126.283" width="488.065" height="30.7174" fill="#166BF8"/>
<path d="M135.315 19.5402C136.032 19.4432 138.553 18.9197 138.863 15.9918C138.184 15.5265 136.381 14.2662 134.752 12.5598H134.733C133.802 11.5904 132.949 10.4851 132.367 9.28296C131.999 12.0363 131.902 16.845 135.315 19.5402V19.5402ZM132.581 52.1733C132.484 52.4448 132.367 52.7356 132.309 53.0846C132.309 53.104 131.727 58.3975 132.27 61.0151L135.683 64.4083V58.9404C135.719 57.65 135.459 56.3686 134.921 55.1951C134.383 54.0217 133.582 52.9878 132.581 52.1733V52.1733ZM169.247 19.5402C172.659 16.845 172.562 12.0363 172.175 9.28296C171.612 10.4464 170.779 11.5128 169.887 12.4629V12.4823H169.867C168.219 14.2274 166.377 15.5265 165.679 15.9918C166.009 18.9197 168.51 19.4432 169.247 19.5402Z" fill="white"/>
<path d="M171.263 51.0676C171.17 50.8906 171.029 50.7429 170.856 50.641C170.856 50.641 169.131 49.7685 166.843 49.7685C164.283 49.7685 156.643 48.8959 152.688 46.2007L152.417 51.785C152.407 51.9307 152.34 52.0669 152.232 52.1646C152.123 52.2623 151.981 52.3139 151.835 52.3085C151.762 52.3056 151.69 52.2881 151.624 52.2571C151.558 52.2261 151.499 52.1822 151.451 52.128C151.402 52.0738 151.364 52.0104 151.34 51.9415C151.316 51.8726 151.307 51.7996 151.311 51.7268L151.583 46.0068C150.827 46.3559 150.051 46.7049 149.275 47.0151C148.17 47.4611 147.046 47.8683 145.902 48.2367C144.564 48.6632 143.226 49.0317 141.849 49.3031C140.298 49.6133 138.747 49.8266 137.157 49.846C136.051 49.8654 134.946 49.846 133.977 50.4471C133.647 50.641 133.376 50.9125 133.124 51.2033C134.016 51.8626 136.885 54.3639 136.788 58.9399V65.513L140.86 69.5461L146.716 66.5989C146.793 66.5601 146.871 66.5407 146.968 66.5407H156.43C156.508 66.5407 156.585 66.5601 156.643 66.5795L163.682 69.5655L167.444 65.3773V58.9205C167.327 53.9179 170.74 51.4166 171.263 51.0676V51.0676ZM148.674 54.3251L152.087 55.2364L155.519 54.5578C155.81 54.4996 156.12 54.6935 156.178 55.0037C156.236 55.314 156.042 55.6048 155.732 55.663L152.164 56.361C152.126 56.361 152.087 56.3804 152.048 56.3804C152.009 56.3804 151.951 56.3804 151.912 56.361L148.383 55.4109C148.243 55.371 148.123 55.2776 148.051 55.1508C147.978 55.0239 147.959 54.8736 147.996 54.7323C148.073 54.422 148.383 54.2475 148.674 54.3251V54.3251ZM160.211 62.43C160.095 62.5464 159.959 62.6046 159.804 62.6046C159.668 62.6046 159.533 62.5658 159.436 62.4688L157.535 60.7431H146.309L144.312 62.4882C144.2 62.5748 144.059 62.6152 143.919 62.6011C143.778 62.587 143.649 62.5194 143.557 62.4124C143.464 62.3053 143.417 62.1669 143.424 62.0259C143.431 61.8848 143.492 61.7519 143.594 61.6544L145.746 59.7736C145.843 59.6767 145.979 59.6379 146.115 59.6379H157.749C157.884 59.6379 158.02 59.6961 158.117 59.7736L160.172 61.6544C160.386 61.8483 160.405 62.1974 160.211 62.43V62.43Z" fill="white"/>
<path d="M168.53 58.9011V64.117L171.865 60.3941C172.117 57.7183 172.156 54.1506 171.652 52.134C170.837 52.7933 168.452 54.9649 168.53 58.9011ZM131.379 14.9443C131.379 14.9443 131.534 15.5454 131.747 16.2434L131.379 14.9443ZM172.873 16.0689L173.222 14.7698C173.203 14.7698 172.912 15.8944 172.873 16.0689Z" fill="white"/>
<path d="M127.423 51.2806L126.124 41.8184L127.423 51.2806Z" fill="white"/>
<path d="M127.423 51.2808L125.736 40.5388C125.736 40.5388 124.321 40.3062 123.642 40.8491C122.828 41.5083 122.653 42.7687 123.138 44.7464C124.282 49.3224 125.213 52.037 126.686 52.483C126.803 52.5218 126.938 52.5412 127.093 52.5412C127.249 52.5412 127.404 52.5024 127.578 52.4442L127.423 51.2808V51.2808ZM173.202 14.7697L172.853 16.0688C172.311 17.7364 171.36 19.3263 169.732 20.5479C169.635 20.6255 169.518 20.6642 169.402 20.6642H169.383C167.793 20.5867 164.748 19.4621 164.555 15.7392C164.535 15.5453 164.652 15.3514 164.807 15.2351C164.845 15.2157 166.765 13.9941 168.568 12.2296L169.344 11.4153C164.729 8.15777 158.854 6.49024 151.854 6.45146C151.486 6.43207 142.78 6.18001 135.276 11.4928L136.071 12.3072C136.866 13.0828 137.7 13.7421 138.359 14.2462C139.774 13.2379 145.339 9.74774 153.793 10.0774C154.103 10.0968 154.336 10.3488 154.336 10.6591C154.317 10.9693 154.103 11.1826 153.754 11.202C146.27 10.9111 141.054 13.8196 139.328 14.9442C139.561 15.1187 139.736 15.2157 139.736 15.2351C139.91 15.3514 140.007 15.5259 139.988 15.7392C139.794 19.4814 136.73 20.6061 135.16 20.6642H135.14C135.024 20.6642 134.908 20.6255 134.811 20.5479C134.578 20.3734 134.365 20.1795 134.151 19.9856C133.221 21.3235 130.836 25.1821 131.088 28.6916C131.107 29.0019 130.874 29.2539 130.564 29.2927H130.525C130.235 29.2927 130.002 29.0794 129.963 28.7692C129.692 24.6779 132.484 20.4122 133.376 19.1712C132.62 18.2793 132.096 17.271 131.747 16.2433C131.534 15.5453 131.379 14.9442 131.379 14.9442C128.257 18.4344 126.26 22.545 125.368 27.916C125.368 27.916 125.077 29.0406 125.251 30.2428L125.562 32.3369L130.041 62.2361L130.293 64.0781L138.979 73.0362C139.115 73.0944 139.231 73.1526 139.387 73.2107H165.33L165.737 73.0362L173.862 64.3302L174.211 62.333L179 30.5531L179.155 29.5254C179.427 27.7221 179.291 25.8995 178.709 24.1738C177.72 21.3041 176.053 17.8721 173.202 14.7697V14.7697ZM168.064 33.5003C168.187 33.464 168.32 33.4779 168.433 33.5391L171.865 35.1485C172 35.2066 172.097 35.323 172.155 35.4781C172.214 35.6138 172.194 35.7689 172.117 35.9047L170.41 39.2591C170.333 39.4142 170.178 39.5306 170.003 39.55L158.738 41.295H158.66C158.524 41.295 158.389 41.2369 158.272 41.1399C158.078 40.9654 156.43 39.3367 156.799 37.7467C156.993 36.9323 157.652 36.3312 158.776 35.9628L168.064 33.5003V33.5003ZM157.342 10.3876C157.4 10.407 158.932 10.6397 160.134 11.0469C160.425 11.1438 160.58 11.454 160.483 11.7449C160.405 11.9776 160.192 12.1133 159.959 12.1133C159.901 12.1133 159.843 12.0939 159.785 12.0745C158.679 11.7255 157.186 11.4928 157.186 11.4928C156.876 11.454 156.682 11.1632 156.721 10.853C156.745 10.7106 156.823 10.5828 156.938 10.4962C157.054 10.4096 157.198 10.3707 157.342 10.3876V10.3876ZM132.038 35.1291L135.47 33.5197C135.586 33.4615 135.722 33.4615 135.838 33.4809L145.107 35.9434C146.27 36.3118 146.929 36.9129 147.104 37.7273C147.453 39.2979 145.805 40.9266 145.63 41.1205C145.579 41.1707 145.518 41.2103 145.452 41.2369C145.385 41.2635 145.314 41.2767 145.242 41.2756H145.165L133.899 39.5306C133.813 39.5193 133.73 39.4868 133.659 39.4361C133.588 39.3853 133.531 39.3179 133.492 39.2397L131.786 35.8853C131.751 35.8204 131.73 35.7492 131.723 35.6759C131.716 35.6026 131.724 35.5288 131.747 35.4587C131.805 35.323 131.902 35.2066 132.038 35.1291V35.1291ZM131.204 52.929C131.379 51.8625 131.805 50.8542 132.581 50.0786C133.182 49.4776 133.957 49.0704 134.772 48.8765C135.528 48.6826 136.304 48.7214 137.06 48.7214C138.184 48.7407 139.309 48.605 140.414 48.4111C140.821 48.3529 141.229 48.2754 141.636 48.1784C142.043 48.1009 142.431 48.0039 142.838 47.907C143.226 47.81 143.614 47.7131 144.001 47.5967C144.389 47.4998 144.758 47.3835 145.126 47.2671C145.494 47.1508 145.843 47.0344 146.212 46.9181C146.561 46.8018 146.89 46.6854 147.239 46.5691C147.55 46.4527 147.879 46.3364 148.19 46.2201L149.062 45.871C149.314 45.7741 149.586 45.6578 149.838 45.5414C150.07 45.4445 150.284 45.3475 150.497 45.2506C150.691 45.173 150.865 45.0954 151.04 44.9985C151.176 44.9403 151.331 44.8628 151.466 44.8046C151.563 44.7658 151.66 44.7077 151.757 44.6689C151.99 44.5525 152.32 44.475 152.533 44.6689C155.829 47.6549 164.283 48.6244 166.823 48.6244C169.402 48.6244 171.302 49.5939 171.38 49.6327C173.823 51.0094 173.106 59.0949 172.95 60.6849C172.931 60.8012 172.892 60.9176 172.815 60.9951L164.225 70.5543C164.109 70.6707 163.973 70.7288 163.818 70.7288C163.745 70.7271 163.673 70.714 163.604 70.6901L156.314 67.6071H147.084L140.996 70.6901C140.783 70.8064 140.531 70.7482 140.356 70.5931L131.359 61.6738C131.282 61.5962 131.243 61.4993 131.204 61.4023C130.564 58.6684 131.185 53.1616 131.204 52.929V52.929ZM181.21 40.8491C180.415 40.2092 179.271 40.4419 178.573 40.694L178.38 41.9543L177.003 51.0675L176.828 52.2503C177.158 52.4636 177.468 52.5412 177.74 52.5412C177.895 52.5412 178.031 52.5218 178.147 52.483C179.601 52.0564 180.551 49.3224 181.695 44.7464C182.18 42.7687 182.025 41.4889 181.21 40.8491V40.8491Z" fill="white"/>
<path d="M315.427 33.6751L315.679 21.7891H302.921L302.591 34.0823C306.411 37.9021 308.136 39.686 308.912 40.5585L315.427 33.6751ZM322.078 11.3186L321.903 21.7891L321.961 19.4817L322.136 11.338C322.117 11.338 322.097 11.338 322.078 11.3186V11.3186Z" fill="white"/>
<path d="M339.063 31.8527C338.908 31.8527 338.772 31.7945 338.637 31.6976C338.572 31.6429 338.518 31.5759 338.479 31.5005C338.44 31.4251 338.416 31.3427 338.409 31.258C338.402 31.1733 338.411 31.0881 338.437 31.0071C338.463 30.9262 338.504 30.8511 338.559 30.7863C341.06 27.839 344.938 14.6927 345.83 11.5515C342.127 16.2826 330.551 29.8361 316.862 34.0437L309.339 41.9742C309.164 42.1681 308.873 42.2263 308.621 42.1293C308.472 42.07 308.349 41.9602 308.272 41.8191C307.807 41.218 303.599 36.9328 300.943 34.2764C299.818 33.8111 291.519 30.2627 283.279 23.7477H283.259C283.221 23.7283 283.221 23.709 283.201 23.6896C279.149 20.4708 275.116 16.5347 271.936 11.8811C272.983 16.1663 277.423 33.2682 282.542 36.9328C282.833 37.1461 282.891 37.5533 282.697 37.8442C282.561 38.0187 282.367 38.1156 282.174 38.1156C282.038 38.1156 281.902 38.0768 281.805 37.9993C277.326 34.7806 273.545 22.8752 271.684 16.05C271.936 23.9029 273.933 37.3788 283.647 47.4615C283.744 47.5585 283.802 47.6748 283.822 47.8105L286.168 62.7989L294.854 71.7764L292.644 54.2286C292.625 54.0153 292.702 53.7826 292.877 53.6469C293.051 53.5112 293.284 53.4724 293.497 53.5306C293.575 53.5499 301.137 56.0318 305.674 56.3227L306.256 48.7994C306.275 48.4504 306.605 48.1983 306.954 48.1983C307.303 48.2177 307.574 48.5474 307.555 48.8964L306.954 56.5941L308.893 57.4085L311.006 56.4972C311.103 56.4584 311.181 56.439 311.278 56.439C311.355 56.439 318.975 56.6523 323.939 54.0541C324.045 53.9983 324.164 53.9724 324.284 53.9793C324.404 53.9861 324.519 54.0254 324.618 54.0929C324.812 54.2286 324.928 54.4613 324.889 54.7133L322.679 72.106L331.443 62.8959L334.119 47.9851C334.138 47.8493 334.216 47.7136 334.313 47.6166C334.449 47.5003 346.005 36.5838 346.121 15.2162C344.531 20.4127 341.662 29.1575 339.548 31.6588C339.432 31.7751 339.238 31.8527 339.063 31.8527V31.8527ZM301.079 45.6971C300.962 45.8134 300.788 45.8716 300.633 45.8716H300.536L292.024 44.553C291.921 44.5379 291.823 44.4983 291.739 44.4376C291.654 44.3768 291.586 44.2967 291.539 44.204L290.24 41.664C290.2 41.5868 290.176 41.5024 290.169 41.4158C290.162 41.3292 290.173 41.2422 290.201 41.1598C290.259 40.9853 290.375 40.8496 290.531 40.7914L293.129 39.5699C293.269 39.5083 293.426 39.4947 293.575 39.5311L300.574 41.4119C301.757 41.7997 302.145 42.4589 302.261 42.9437C302.552 44.2234 301.234 45.5419 301.079 45.6971V45.6971ZM327.371 41.567L326.111 44.1265C326.014 44.3204 325.839 44.4367 325.646 44.4755L317.153 45.9297H317.036C316.881 45.9297 316.707 45.8716 316.591 45.7552C316.435 45.6195 315.078 44.301 315.369 42.9825C315.466 42.4977 315.834 41.8385 316.998 41.4313L323.997 39.4535C324.153 39.4147 324.308 39.4147 324.443 39.4923L327.061 40.6751C327.216 40.7526 327.352 40.8884 327.41 41.0435C327.468 41.218 327.449 41.4119 327.371 41.567V41.567ZM337.803 34.7806L336.135 37.3012C336.09 37.3733 336.03 37.4352 335.96 37.4833C335.89 37.5314 335.811 37.5647 335.727 37.581C335.644 37.5974 335.558 37.5965 335.474 37.5784C335.391 37.5603 335.313 37.5253 335.244 37.4758C334.953 37.2819 334.856 36.8747 335.05 36.5838L336.717 34.0631C336.911 33.7723 337.318 33.6753 337.609 33.8692C337.919 34.0825 337.997 34.4703 337.803 34.7806V34.7806Z" fill="white"/>
<path d="M311.374 57.7187L309.125 58.6882H308.621L306.1 57.6411C302.338 57.5442 296.366 55.7991 294.02 55.0623L296.192 72.2417C296.25 72.6682 296.599 72.9785 297.025 72.9979L320.429 73.3081C320.875 73.3081 321.243 72.9979 321.282 72.5519L323.415 55.7215C318.606 57.7768 312.44 57.7381 311.374 57.7187V57.7187ZM311.296 66.9095H306.604C306.255 66.9095 305.964 66.6186 305.964 66.2696C305.964 65.9206 306.255 65.6297 306.604 65.6297H311.296C311.645 65.6297 311.936 65.9206 311.936 66.2696C311.936 66.6186 311.665 66.9095 311.296 66.9095ZM317.327 63.9428C317.133 64.253 316.745 64.35 316.435 64.1561L314.476 62.9733H302.998L300.826 64.1755C300.729 64.2337 300.613 64.253 300.516 64.253C300.283 64.253 300.07 64.1367 299.953 63.9234C299.871 63.7713 299.851 63.5928 299.898 63.4261C299.945 63.2594 300.055 63.1178 300.205 63.0315L302.513 61.7518C302.61 61.6936 302.726 61.6742 302.823 61.6742H314.651C314.767 61.6742 314.883 61.713 314.98 61.7711L317.094 63.0509C317.424 63.2448 317.521 63.652 317.327 63.9428V63.9428Z" fill="white"/>
<path d="M296.833 8.79796C296.794 8.81735 296.775 8.83674 296.736 8.85613C288.108 12.6178 284.327 19.6369 283.241 22.0606L284.288 22.8944C288.67 26.3458 293.052 28.9246 296.31 30.6309L296.969 10.1746V8.73979C296.93 8.75918 296.872 8.77857 296.833 8.79796V8.79796ZM322.486 10.0583C322.447 10.0389 322.428 10.0195 322.389 10.0001C322.311 9.96135 322.214 9.92257 322.137 9.88379V11.3574L322.04 15.6232L321.943 19.4818L321.885 22.429L321.865 23.0883L321.73 30.6697C325.86 28.6144 329.718 25.8416 333.092 22.9526L334.1 22.08C331.405 16.806 327.508 12.7535 322.486 10.0583V10.0583ZM308.874 6.45179C306.955 6.45179 305.074 6.60691 303.367 6.91714C303.309 6.91714 303.251 6.93653 303.193 6.93653V8.23565L303.096 15.6232H315.816L315.932 8.81735V7.46006C311.918 6.37423 308.99 6.4324 308.874 6.45179V6.45179ZM339.665 42.8659C339.51 43.3701 338.386 44.7661 338.386 44.7661C336.951 46.7633 335.787 47.9849 335.361 48.4114L334.546 52.9099L334.217 54.7131C334.236 54.7131 334.236 54.7131 334.255 54.6937C340.266 50.9709 339.762 43.7579 339.665 42.8659ZM283.241 52.6578L282.543 48.1981C281.496 47.1123 280.565 45.9683 279.673 44.8049L278.374 42.9629C278.277 44.2426 278.025 50.8739 283.532 54.4805L283.241 52.6578V52.6578Z" fill="white"/>
<path d="M245.005 28.6918C245.082 28.6724 245.16 28.653 245.257 28.6336C245.431 28.5948 245.606 28.6336 245.741 28.7306C245.78 28.7499 245.935 28.8663 246.149 29.0602C252.819 18.8611 248.689 12.9472 247.176 11.2991L242.29 18.5897C242.251 19.6755 242.154 26.0741 245.005 28.6918V28.6918ZM205.973 46.8795L206.69 57.9511L210.646 63.2251L208.435 48.0428C207.408 47.6357 206.574 47.2091 205.973 46.8795V46.8795ZM241.127 63.419L245.218 57.9511L246.342 46.8795C245.509 47.306 244.21 47.9071 242.678 48.45L241.127 63.419ZM233.972 20.1408C229.648 19.2295 227.864 24.2127 227.806 24.426C227.788 24.4813 227.762 24.5336 227.728 24.5811C223.094 31.3288 212.352 28.7306 209.812 27.9937L209.269 29.2153C215.086 30.2042 229.027 31.8911 243.628 28.9826C241.398 26.2874 241.068 21.692 241.049 19.5398C237.753 21.2461 234.146 20.1796 233.972 20.1408V20.1408Z" fill="white"/>
<path d="M208.027 28.9827L208.9 26.9855C209.016 26.6947 209.346 26.5589 209.656 26.6559C209.772 26.6947 219.331 29.7583 224.78 25.8609C225.711 25.1823 226.486 24.2903 226.971 23.2433C227.979 21.0716 230.422 18.1437 234.281 18.9581C234.378 18.9775 238.236 20.1021 241.242 17.9692L246.341 10.349C245.12 8.42943 238.081 -1.34306 225.788 3.6983C214.368 8.37126 209.384 9.53465 206.573 8.97234C207.038 9.4377 207.659 9.92245 208.492 10.2715C210.839 11.2797 213.922 10.9889 217.664 9.41831C227.572 5.24949 229.86 5.28827 231.566 5.30766H231.896C232.226 5.30766 232.497 5.57912 232.497 5.90875C232.497 6.23837 232.226 6.50983 231.896 6.50983H231.547C229.938 6.49044 227.805 6.45166 218.129 10.5235C215.686 11.5512 213.495 12.0553 211.556 12.0553C210.257 12.0553 209.055 11.8227 207.988 11.3573C206.282 10.6205 205.313 9.45709 204.789 8.66211C203.025 11.1052 198.158 19.5204 207.019 28.75C207.271 28.8276 207.601 28.8857 208.027 28.9827ZM235.153 6.60678C235.289 6.29654 235.658 6.1802 235.968 6.31593L238.178 7.36298C238.489 7.49871 238.605 7.86712 238.469 8.17736C238.372 8.39065 238.14 8.52638 237.926 8.52638C237.829 8.52638 237.752 8.50699 237.655 8.46821L235.444 7.42115C235.37 7.38854 235.304 7.34116 235.248 7.28191C235.193 7.22266 235.151 7.15279 235.124 7.07657C235.096 7.00035 235.085 6.91937 235.09 6.8386C235.095 6.75782 235.117 6.67894 235.153 6.60678V6.60678Z" fill="white"/>
<path d="M236.433 49.5748C235.445 49.5748 234.456 49.4779 233.467 49.2646C232.879 49.1226 232.307 48.9212 231.76 48.6635L226.254 46.1816C226.138 46.1289 226.012 46.1016 225.885 46.1016C225.758 46.1016 225.633 46.1289 225.517 46.1816L219.739 48.7604C219.37 48.9156 218.924 49.0707 218.44 49.187C215.221 49.8463 212.157 49.3034 209.772 48.5084L212.196 65.2418L219.215 73.2886H233.292L239.71 65.2612L241.417 48.8186C239.885 49.2452 238.198 49.5748 236.433 49.5748V49.5748ZM221.969 52.3863C222.104 52.0761 222.473 51.9404 222.783 52.0761L226.137 53.5885L229.686 52.2118C229.996 52.0955 230.345 52.2506 230.481 52.5608C230.597 52.8711 230.442 53.2201 230.132 53.3558L226.351 54.8295C226.273 54.8489 226.196 54.8682 226.137 54.8682C226.06 54.8682 225.963 54.8489 225.885 54.8101L222.298 53.1813C222.223 53.1529 222.154 53.1094 222.096 53.0533C222.038 52.9972 221.992 52.9298 221.961 52.8553C221.93 52.7808 221.915 52.7007 221.916 52.62C221.917 52.5394 221.935 52.4598 221.969 52.3863ZM228.91 66.89H228.891L223.035 66.6185C222.874 66.6085 222.723 66.5361 222.614 66.4166C222.506 66.2971 222.448 66.14 222.453 65.9786C222.473 65.649 222.725 65.4163 223.093 65.3969L228.949 65.6684C229.279 65.6878 229.55 65.9786 229.531 66.3083C229.511 66.6379 229.24 66.89 228.91 66.89ZM234.65 63.9815C234.592 64.0481 234.52 64.1016 234.44 64.1383C234.36 64.1751 234.273 64.1944 234.184 64.1948C234.049 64.1948 233.893 64.1366 233.777 64.0396L232.536 62.9538L219.487 62.663L218.343 63.6712C218.091 63.9039 217.703 63.8651 217.49 63.6131C217.257 63.361 217.296 62.9732 217.548 62.7599L218.866 61.5771C218.986 61.478 219.137 61.4232 219.293 61.422L232.808 61.7323C232.943 61.7323 233.098 61.7904 233.195 61.8874L234.591 63.1283C234.863 63.3416 234.882 63.7294 234.65 63.9815Z" fill="white"/>
<path d="M245.237 29.894C226.855 33.8884 209.094 30.4563 206.457 29.894C205.352 31.0574 200.756 36.6611 205.739 45.3284C206.593 45.8713 212.177 49.1288 218.052 47.9848C218.479 47.9072 218.886 47.7521 219.273 47.5776L224.994 45.0181C225.265 44.9018 225.556 44.8436 225.866 44.8436C226.157 44.8436 226.467 44.9018 226.739 45.0375L232.342 47.5776C232.788 47.7715 233.234 47.946 233.7 48.0623C239.342 49.3421 245.489 45.9682 246.574 45.3478C250.646 35.265 246.264 30.786 245.237 29.894V29.894ZM245.818 39.9962C245.779 40.2288 245.605 40.4227 245.353 40.4809C245.236 40.5003 237.519 42.3036 226.428 42.3036C220.611 42.3036 213.864 41.8188 206.786 40.3258C206.657 40.3014 206.539 40.2349 206.452 40.1367C206.364 40.0385 206.311 39.9141 206.302 39.7829C206.282 39.5114 206.108 37.1652 207.329 35.9631C207.484 35.8273 207.678 35.7692 207.872 35.8079C208.047 35.8467 225.517 39.4145 244.151 35.5559C244.422 35.4977 244.694 35.6334 244.81 35.8661C244.965 36.1182 246.109 38.348 245.818 39.9962V39.9962Z" fill="white"/>
<path d="M205.973 46.8794L206.69 57.951L210.646 63.225L208.435 48.0428C207.408 47.6356 206.574 47.209 205.973 46.8794V46.8794ZM241.127 63.4189L245.218 57.951L246.342 46.8794C245.509 47.306 244.21 47.9071 242.678 48.45L241.127 63.4189Z" fill="white"/>
<path d="M248.746 27.0047L248.087 28.2262C247.777 28.7692 247.447 29.3315 247.078 29.8938C247.059 29.9326 247.02 29.9519 247.001 29.9713C248.746 32.0848 251.286 37.0292 247.68 45.9098L247.369 48.954L247.156 51.0481C247.195 51.0287 247.234 51.0287 247.253 51.0093C257.219 40.2674 250.103 28.9631 248.746 27.0047V27.0047ZM204.692 45.9486C199.341 36.6221 204.401 30.3397 205.604 29.06C205.119 28.5171 204.673 27.9936 204.266 27.47L203.529 26.4424C201.958 28.4589 194.435 39.2397 204.847 50.2919C204.886 50.3307 204.944 50.3113 204.983 50.3501L204.867 48.4693L204.692 45.9486V45.9486Z" fill="white"/>
<path d="M405.378 41.8188C406.909 41.5861 408.325 40.0156 409.488 37.2622L401.383 39.9962C402.178 40.8106 403.71 42.0709 405.378 41.8188ZM380.617 41.8188C382.265 42.0709 383.816 40.8106 384.611 39.9962L376.506 37.2622C377.669 40.0156 379.085 41.5861 380.617 41.8188Z" fill="white"/>
<path d="M395.469 62.4306L390.001 62.1785C389.633 62.1979 389.381 62.4306 389.361 62.7602C389.342 63.0898 389.613 63.3807 389.943 63.4001L395.411 63.6521H395.43C395.76 63.6521 396.031 63.4001 396.031 63.0705C396.051 62.7214 395.799 62.4306 395.469 62.4306ZM399.463 58.8822C399.356 58.787 399.219 58.7321 399.076 58.7271L386.453 58.4363C386.297 58.4375 386.146 58.4923 386.026 58.5914L384.785 59.6966C384.533 59.9099 384.514 60.2977 384.727 60.5498C384.96 60.8018 385.328 60.8212 385.58 60.6079L386.627 59.6772L398.785 59.9487L399.929 60.957C400.045 61.0539 400.181 61.1121 400.336 61.1121C400.51 61.1121 400.666 61.0345 400.782 60.8988C400.995 60.6467 400.976 60.2589 400.724 60.0456L399.463 58.8822V58.8822Z" fill="white"/>
<path d="M394.519 51.8436C394.48 51.863 394.441 51.8436 394.383 51.8436C394.364 51.8436 394.344 51.863 394.325 51.863H391.223C391.203 51.863 391.184 51.8436 391.165 51.8436H391.029L376.816 47.3258L379.22 65.7268L379.511 67.7627L384.281 72.6683C384.378 72.7653 384.514 72.8428 384.669 72.8428L392.095 73.4827V67.9954C392.095 67.6657 392.367 67.3943 392.696 67.3943C393.026 67.3943 393.297 67.6657 393.297 67.9954V73.4827L400.879 72.8234C401.034 72.8041 401.17 72.7459 401.267 72.6489L406.056 67.7239L406.327 65.7074L408.732 47.3064L394.519 51.8436V51.8436ZM395.43 63.6327H395.411L389.943 63.3806C389.863 63.3771 389.784 63.3578 389.711 63.3237C389.638 63.2895 389.573 63.2414 389.519 63.1819C389.465 63.1224 389.423 63.0528 389.396 62.977C389.369 62.9013 389.357 62.821 389.361 62.7407C389.381 62.4111 389.633 62.1784 390.001 62.159L395.469 62.4111C395.799 62.4305 396.07 62.7019 396.051 63.051C396.031 63.3806 395.76 63.6327 395.43 63.6327V63.6327ZM400.821 60.8987C400.704 61.0344 400.53 61.112 400.375 61.112C400.239 61.112 400.084 61.0538 399.968 60.9569L398.824 59.9486L386.666 59.6771L385.619 60.6078C385.367 60.8405 384.979 60.8017 384.766 60.5497C384.533 60.2976 384.572 59.9098 384.824 59.6965L386.065 58.5913C386.185 58.4922 386.336 58.4374 386.492 58.4362L399.114 58.727C399.25 58.727 399.386 58.7852 399.502 58.8821L400.801 60.0455C401.034 60.2588 401.053 60.6466 400.821 60.8987V60.8987Z" fill="white"/>
<path d="M407.587 66.1339L407.8 64.001C407.781 64.001 407.684 65.0093 407.587 66.1339ZM392.773 6.95609C392.289 6.95609 380.092 6.85914 374.14 17.0194L374.838 18.2216C375.245 18.9196 375.652 19.6177 376.098 20.3157C377.707 18.0083 383.001 11.6678 391.978 12.3077C392.059 12.3141 392.137 12.3362 392.208 12.3727C392.28 12.4093 392.344 12.4596 392.396 12.5209C392.448 12.5821 392.488 12.653 392.513 12.7295C392.538 12.8061 392.547 12.8867 392.541 12.9669C392.534 13.0472 392.512 13.1253 392.476 13.197C392.439 13.2687 392.389 13.3324 392.327 13.3846C392.266 13.4368 392.195 13.4765 392.119 13.5013C392.042 13.5261 391.962 13.5356 391.881 13.5292C382.904 12.8312 377.863 19.8116 376.815 21.4015C376.777 21.4791 377.436 22.3322 377.513 22.4292C377.766 22.7976 378.018 23.1466 378.27 23.515C379.858 25.7564 381.58 27.8997 383.427 29.9331C383.912 30.4566 384.358 30.9995 384.92 31.4261C386.181 32.415 387.422 33.2875 388.43 34.5479C389.361 35.7306 390.078 37.1267 390.214 38.6391C390.311 39.6862 390.136 40.7332 389.71 41.6833L391.707 50.6414H393.82L395.818 41.6833C395.158 40.1903 395.139 38.5422 395.682 37.0298C396.205 35.5949 397.194 34.5285 398.164 33.3845C398.648 32.8028 399.366 32.3762 399.967 31.8914C401.925 30.3015 403.593 28.3043 405.163 26.3266C407.199 23.7477 409.041 21.0331 410.709 18.2022L411.407 17C405.493 6.85914 393.297 6.95609 392.773 6.95609V6.95609ZM397.989 14.1691H397.892L395.081 13.7425C394.922 13.7163 394.779 13.6282 394.685 13.4975C394.59 13.3667 394.551 13.2038 394.577 13.0445C394.588 12.9651 394.616 12.8889 394.658 12.8203C394.699 12.7517 394.754 12.6922 394.819 12.6452C394.884 12.5982 394.958 12.5647 395.036 12.5467C395.115 12.5287 395.196 12.5266 395.275 12.5404L398.086 12.9669C398.416 13.0251 398.648 13.3354 398.59 13.665C398.551 13.9558 398.299 14.1691 397.989 14.1691Z" fill="white"/>
<path d="M375.516 46.5113C375.497 46.298 375.575 46.1041 375.73 45.9684C375.809 45.9019 375.904 45.8565 376.006 45.8362C376.107 45.8158 376.212 45.8213 376.311 45.852L390.427 50.3505C390.388 50.1372 390.33 49.9433 390.291 49.73L389.942 48.1788C389.787 47.5002 389.632 46.8215 389.496 46.1623C389.341 45.4836 389.186 44.805 389.031 44.1069C388.915 43.564 388.798 43.0211 388.663 42.4976C388.585 42.1098 388.411 41.6638 388.585 41.276L388.701 40.9852C388.779 40.7913 388.837 40.5974 388.895 40.4035C388.992 40.0351 389.05 39.6667 389.05 39.2789C389.05 38.5614 388.895 37.8634 388.624 37.2041C388.352 36.5643 387.984 35.9632 387.557 35.4203C386.995 34.7028 386.336 34.0436 385.618 33.4813C385.114 33.0741 384.552 32.7251 384.048 32.2985C383.524 31.8719 383.078 31.329 382.613 30.8443C381.857 30.0299 381.12 29.1961 380.422 28.343C379.317 27.0245 378.27 25.6478 377.261 24.2323C376.311 22.8944 375.4 21.5177 374.547 20.1217C373.713 18.7644 372.938 17.4071 372.22 15.9916C371.541 14.6537 370.902 13.2771 370.3 11.9004C369.699 10.5237 369.118 9.12763 368.575 7.71217C368.071 6.43244 367.586 5.15271 367.14 3.87298C366.772 2.84531 366.423 1.83704 366.093 0.789988C366.035 0.615479 365.977 0.421581 365.918 0.247072C365.802 -0.121335 365.259 -0.0631655 365.201 0.324632C359.655 35.2458 369.447 43.6997 371.386 44.9989L372.239 59.0953C372.278 59.2116 372.336 59.328 372.375 59.4443L378.056 66.2308L377.766 64.0009L375.516 46.5113V46.5113ZM375.032 35.8469C375.187 35.6723 375.439 35.6336 375.652 35.6917L385.851 39.1431C386.045 39.2013 386.181 39.3564 386.239 39.5503C386.297 39.7442 386.258 39.9381 386.142 40.0932C386.045 40.229 383.854 43.0793 381.042 43.0793C380.829 43.0793 380.635 43.0599 380.422 43.0405C378.173 42.6915 376.311 40.5004 374.896 36.4867C374.859 36.3777 374.852 36.2607 374.876 36.1481C374.9 36.0355 374.954 35.9314 375.032 35.8469V35.8469ZM420.443 0.712429C420.365 0.227682 419.667 0.150123 419.512 0.615479C419.124 1.81765 418.698 3.01982 418.271 4.22199C417.709 5.77318 417.127 7.30498 416.526 8.81739C415.867 10.4655 415.169 12.0943 414.432 13.7036C413.54 15.6232 412.57 17.504 411.504 19.3267C410.748 20.6064 409.933 21.8474 409.1 23.0883C407.975 24.7365 406.792 26.3264 405.532 27.8776C404.659 28.9441 403.767 30.0493 402.817 31.0382C401.809 32.0852 400.607 32.8608 399.521 33.8109C399.172 34.1018 398.862 34.412 398.552 34.7416C398.222 35.0906 397.912 35.4784 397.64 35.8856C397.369 36.2928 397.117 36.7388 396.923 37.2041C396.729 37.6695 396.593 38.1542 396.554 38.6584C396.496 39.1819 396.535 39.7248 396.651 40.2483C396.709 40.4616 396.768 40.6749 396.845 40.8882C396.884 41.0046 396.923 41.1015 396.981 41.2178C397.097 41.4505 397.097 41.6832 397.039 41.9353C396.981 42.2261 396.903 42.517 396.845 42.8272C396.806 42.9823 396.768 43.1374 396.748 43.2926L396.69 43.5252C396.671 43.5834 396.651 43.6804 396.651 43.7385C396.554 44.2039 396.438 44.6692 396.341 45.1346C396.225 45.6387 396.128 46.1235 396.011 46.6276C395.914 47.1124 395.798 47.5777 395.701 48.0625C395.604 48.4696 395.527 48.8574 395.43 49.2646L395.255 50.079C395.255 50.0984 395.216 50.3311 395.197 50.3311L409.313 45.8326C409.371 45.8132 409.429 45.8132 409.487 45.8132C409.623 45.8132 409.759 45.8714 409.875 45.949C410.03 46.0847 410.108 46.2786 410.088 46.4919L407.82 63.9815L407.607 66.1144L413.21 59.4249C413.268 59.3086 413.307 59.1922 413.346 59.0759L414.199 44.9795C416.119 43.6997 425.852 35.3039 420.443 0.712429V0.712429ZM405.551 43.0211C405.338 43.0599 405.125 43.0599 404.931 43.0599C402.119 43.0599 399.928 40.2096 399.831 40.0738C399.774 39.9973 399.735 39.9083 399.718 39.8139C399.701 39.7196 399.707 39.6227 399.734 39.5309C399.792 39.337 399.928 39.2013 400.122 39.1237L410.321 35.6723C410.534 35.5948 410.787 35.653 410.942 35.8275C411.097 36.002 411.155 36.2346 411.077 36.4673C409.662 40.481 407.8 42.6721 405.551 43.0211V43.0211Z" fill="white"/>
<path d="M446.561 49.4778L446.135 49.3421C446.026 49.3115 445.929 49.2489 445.856 49.1625C445.784 49.076 445.739 48.9697 445.727 48.8573L444.583 40.5779L444.409 39.3757L441.908 40.4809C441.675 40.5973 441.52 40.8493 441.578 41.1014L443.265 51.4944C443.304 51.7658 443.556 51.9791 443.847 51.9791H446.891L446.736 50.7963L446.561 49.4778ZM458.428 17.5621C459.205 17.5485 459.98 17.6332 460.735 17.8142C461.356 17.9693 461.976 18.2214 462.539 18.551C463.062 18.8612 463.547 19.2296 463.993 19.6368C464.419 20.0246 464.788 20.4706 465.137 20.9359C465.447 21.3625 465.738 21.8279 465.99 22.2932C466.009 22.332 466.048 22.3708 466.048 22.4096C465.893 17.1355 464.943 9.12751 461.588 7.36304C451.273 10.6593 447.259 18.454 445.708 23.7669C446.077 23.2046 446.484 22.6616 446.949 22.1575C447.376 21.6921 447.822 21.2462 448.306 20.8584C448.772 20.49 449.256 20.141 449.761 19.8307C450.245 19.5399 450.73 19.2684 451.234 19.0357C451.719 18.8224 452.204 18.6285 452.708 18.454C453.173 18.2989 453.639 18.1632 454.104 18.0468C454.53 17.9499 454.957 17.8529 455.384 17.7948C455.752 17.7366 456.12 17.6784 456.508 17.6591C456.819 17.6397 457.109 17.6009 457.42 17.6009C457.749 17.5815 458.098 17.5621 458.428 17.5621V17.5621ZM457.575 67.1614V63.7875L454.046 58.2614C454.569 60.1422 454.996 62.2945 455.19 64.7376L457.575 67.1614V67.1614ZM447.763 49.8268L449.295 62.0037L454.123 66.3858C453.813 56.749 449.586 51.0484 448.869 50.1371L447.763 49.8268V49.8268ZM485.419 17.5621C486 17.5621 486.582 17.6009 487.183 17.6397L487.765 17.6978L488.172 17.756C488.308 17.7754 488.443 17.8142 488.579 17.8142C489.2 17.9305 489.839 18.0662 490.441 18.2407C491.139 18.4346 491.817 18.6867 492.476 18.997C493.194 19.3266 493.892 19.7144 494.551 20.1603C495.269 20.6451 495.928 21.2074 496.529 21.8279C497.111 22.429 497.634 23.0688 498.08 23.7669C496.529 18.454 492.515 10.6593 482.2 7.36304C478.845 9.12751 477.895 17.1355 477.74 22.4096C477.74 22.3514 477.837 22.2351 477.856 22.1769C477.895 22.0993 477.953 22.0218 477.992 21.9442C478.089 21.7891 478.186 21.6146 478.283 21.4595C478.496 21.1298 478.729 20.8002 478.981 20.49C479.524 19.8307 480.144 19.249 480.843 18.7837C481.618 18.2795 482.491 17.9111 483.383 17.7172C484.1 17.6009 484.759 17.5621 485.419 17.5621V17.5621Z" fill="white"/>
<path d="M467.231 24.9498H476.615C476.557 22.1964 476.615 10.6207 480.803 6.95601C478.225 6.27737 475.277 5.87018 471.923 5.81201C468.568 5.85079 465.621 6.27737 463.042 6.95601C467.231 10.6207 467.289 22.1964 467.231 24.9498V24.9498ZM488.637 64.7378C488.831 62.2947 489.238 60.1424 489.781 58.2616L486.271 63.7877V67.1615L488.637 64.7378Z" fill="white"/>
<path d="M465.079 39.4728H478.788C486.563 39.4922 494.881 37.2429 494.881 37.2429L499.399 30.9606C499.283 30.0105 499.089 29.0604 498.837 28.1297C498.604 27.3153 498.313 26.5203 497.945 25.7641C497.624 25.0899 497.241 24.4473 496.801 23.8445C496.413 23.3016 495.967 22.7781 495.463 22.2934C495.017 21.8474 494.532 21.4596 494.009 21.0912C493.524 20.7616 493.02 20.4513 492.496 20.1993C492.012 19.9472 491.488 19.7339 490.984 19.5594C490.499 19.3849 490.014 19.2492 489.53 19.1328C489.084 19.0359 488.638 18.9389 488.192 18.8807C487.813 18.8218 487.431 18.783 487.048 18.7644C486.427 18.7256 485.787 18.7062 485.167 18.7256C484.566 18.745 483.965 18.7838 483.383 18.9389C482.86 19.0746 482.336 19.2879 481.871 19.5594C481.289 19.889 480.785 20.2962 480.319 20.7809C479.893 21.2269 479.524 21.7117 479.195 22.2352C478.904 22.7005 478.652 23.1853 478.439 23.6894C478.176 24.305 477.962 24.9404 477.799 25.5896C477.799 25.609 477.779 25.6284 477.779 25.6672C477.76 25.7254 477.721 25.7835 477.682 25.8417C477.663 25.8805 477.644 25.9387 477.605 25.958C477.527 26.0356 477.43 26.0744 477.314 26.0938C477.295 26.0938 477.275 26.1326 477.217 26.1326H466.65C466.611 26.1326 466.611 26.1132 466.572 26.0938C466.463 26.081 466.361 26.0334 466.281 25.958C466.242 25.9193 466.223 25.8805 466.204 25.8417C466.165 25.7835 466.107 25.7448 466.107 25.6672C466.087 25.5702 466.068 25.4733 466.029 25.357C465.971 25.1437 465.913 24.911 465.835 24.6977C465.738 24.3875 465.622 24.0772 465.486 23.7864C465.331 23.4216 465.157 23.0656 464.963 22.7199C464.749 22.3321 464.517 21.9637 464.245 21.6147C463.974 21.2463 463.664 20.8779 463.315 20.5677C462.957 20.2326 462.567 19.9338 462.151 19.6757C461.705 19.4043 461.22 19.191 460.716 19.0359C460.445 18.9583 460.173 18.9001 459.902 18.842C459.107 18.7062 458.273 18.7256 457.459 18.745C457.246 18.745 457.032 18.7644 456.838 18.7838C456.586 18.8032 456.334 18.8226 456.082 18.8614L455.229 18.9777C454.919 19.0359 454.609 19.094 454.298 19.1716C453.969 19.2492 453.639 19.3461 453.309 19.443C452.96 19.5594 452.631 19.6757 452.282 19.8115C451.933 19.9472 451.584 20.1023 451.235 20.2768C450.886 20.4513 450.537 20.6452 450.188 20.8585C449.839 21.0912 449.49 21.3239 449.179 21.5759C448.83 21.8474 448.52 22.1382 448.21 22.4485C447.88 22.7781 447.589 23.1271 447.299 23.4761C446.988 23.8639 446.717 24.2711 446.465 24.6783C446.193 25.1243 445.961 25.5896 445.728 26.0744C445.495 26.5979 445.301 27.1214 445.127 27.6643C444.933 28.2654 444.778 28.8665 444.662 29.4676C444.565 29.9524 444.487 30.4565 444.429 30.9412L448.947 37.2235C448.966 37.2429 459.669 39.7636 465.079 39.4728V39.4728ZM501.939 40.5198L499.438 39.4146L499.263 40.6168L498.119 48.8962C498.081 49.1289 497.925 49.3034 497.712 49.381L497.286 49.5167L497.111 50.8934L496.956 52.0762H500C500.291 52.0762 500.524 51.8629 500.582 51.5914L502.269 41.1985C502.308 40.8882 502.172 40.6168 501.939 40.5198ZM489.724 66.3859L494.552 62.0038L496.083 49.827L494.998 50.1372C494.261 51.0485 490.034 56.7685 489.724 66.3859Z" fill="white"/>
<path d="M494.202 49.2456C494.28 49.1699 494.372 49.1106 494.474 49.0711L497.014 48.3343L499.088 33.3459L495.676 38.0771C495.598 38.174 495.501 38.2516 495.366 38.2904L492.903 39.0272L492.399 42.2071C492.36 42.4398 492.186 42.6337 491.953 42.6919C487.125 43.7001 481.23 43.8746 481.172 43.894H481.153C480.978 43.894 480.804 43.8165 480.688 43.6613L478.438 40.6365H465.331L463.082 43.6613C462.965 43.8165 462.791 43.894 462.616 43.894H462.597C462.539 43.894 456.644 43.7195 451.816 42.6919C451.701 42.6659 451.597 42.6056 451.517 42.519C451.438 42.4324 451.386 42.3236 451.37 42.2071L450.866 39.0272L448.403 38.2904C448.282 38.2495 448.175 38.1756 448.093 38.0771L444.681 33.3459L446.755 48.3343L449.295 49.0711C449.412 49.1099 449.489 49.1681 449.567 49.2456C449.664 49.362 450.556 50.3896 451.603 52.2898L458.35 62.9155L461.879 60.1233C461.976 60.0458 462.112 60.007 462.248 60.007H481.521C481.657 60.007 481.773 60.0458 481.89 60.1233L485.419 62.9155L492.166 52.2898C493.233 50.3896 494.125 49.362 494.202 49.2456V49.2456Z" fill="white"/>
<path d="M471.924 61.1702H462.481L458.719 64.1562V68.1117H462.539L464.924 65.9788C465.04 65.8819 465.176 65.8237 465.312 65.8237H478.497C478.633 65.8237 478.788 65.8819 478.885 65.9788L481.27 68.1117H485.09V64.1562L481.328 61.1702H471.924V61.1702Z" fill="white"/>
<path d="M488.541 66.4827L486 69.0809C485.884 69.1972 485.748 69.2554 485.593 69.2554H481.056C480.92 69.2554 480.765 69.1972 480.668 69.1003L478.283 66.9674H465.544L463.159 69.1003C463.043 69.1972 462.907 69.2554 462.771 69.2554H458.234C458.079 69.2554 457.924 69.1972 457.827 69.0809L455.287 66.4827C455.306 66.8705 455.287 68.3053 455.287 68.6155C455.287 68.6155 455.268 69.2554 455.093 70.1086L457.711 72.9589C457.827 73.0752 457.982 73.1528 458.137 73.1528H485.671C485.826 73.1528 485.981 73.0752 486.097 72.9589L488.715 70.1086C488.444 69.585 488.541 66.8705 488.541 66.4827V66.4827Z" fill="white"/>
<path d="M153.586 96.2365L142.527 144.565H123.687L118.09 117.124L112.493 144.565H93.6526L82.5943 96.2365H98.9087L103.277 126.681L109.83 96.2365H126.35L132.903 126.681L137.271 96.2365H153.586ZM174.174 96.2365V144.565H159.02V96.2365H174.174ZM196.172 133.097H210.78V144.565H181.018V96.2365H196.172V133.097ZM235.685 96.2365C240.737 96.2365 245.151 97.2604 248.928 99.3082C252.751 101.356 255.686 104.2 257.734 107.841C259.781 111.481 260.805 115.623 260.805 120.264C260.805 124.861 259.781 129.002 257.734 132.688C255.686 136.374 252.751 139.286 248.928 141.425C245.151 143.519 240.737 144.565 235.685 144.565H215.548V96.2365H235.685ZM234.32 131.05C237.733 131.05 240.441 130.117 242.443 128.251C244.445 126.385 245.447 123.723 245.447 120.264C245.447 116.806 244.445 114.144 242.443 112.278C240.441 110.412 237.733 109.479 234.32 109.479H230.702V131.05H234.32ZM322.587 96.2365V144.565H307.433V125.725H293.03V144.565H277.876V96.2365H293.03V113.643H307.433V96.2365H322.587ZM344.559 108.319V114.257H359.577V125.657H344.559V132.483H361.624V144.565H329.405V96.2365H361.624V108.319H344.559ZM391.636 144.565L382.558 127.227H382.489V144.565H367.335V96.2365H389.862C393.775 96.2365 397.12 96.9418 399.896 98.3526C402.672 99.7178 404.742 101.606 406.108 104.018C407.518 106.385 408.224 109.07 408.224 112.073C408.224 115.304 407.314 118.171 405.493 120.674C403.719 123.177 401.147 124.974 397.78 126.066L408.292 144.565H391.636ZM382.489 117.124H388.496C389.953 117.124 391.045 116.806 391.773 116.169C392.501 115.486 392.865 114.439 392.865 113.029C392.865 111.754 392.478 110.753 391.705 110.025C390.976 109.297 389.907 108.933 388.496 108.933H382.489V117.124ZM436.615 145.043C432.064 145.043 427.878 143.974 424.055 141.835C420.278 139.696 417.274 136.738 415.045 132.961C412.815 129.184 411.7 124.929 411.7 120.196C411.7 115.463 412.815 111.208 415.045 107.431C417.274 103.654 420.278 100.719 424.055 98.6256C427.878 96.4868 432.064 95.4174 436.615 95.4174C441.166 95.4174 445.33 96.4868 449.107 98.6256C452.884 100.719 455.865 103.654 458.049 107.431C460.279 111.208 461.394 115.463 461.394 120.196C461.394 124.929 460.279 129.184 458.049 132.961C455.865 136.738 452.861 139.696 449.038 141.835C445.261 143.974 441.12 145.043 436.615 145.043ZM436.615 130.913C439.618 130.913 441.939 129.957 443.578 128.046C445.216 126.089 446.035 123.473 446.035 120.196C446.035 116.874 445.216 114.257 443.578 112.346C441.939 110.389 439.618 109.411 436.615 109.411C433.566 109.411 431.222 110.389 429.584 112.346C427.946 114.257 427.127 116.874 427.127 120.196C427.127 123.473 427.946 126.089 429.584 128.046C431.222 129.957 433.566 130.913 436.615 130.913ZM482.014 108.319V114.257H497.032V125.657H482.014V132.483H499.08V144.565H466.86V96.2365H499.08V108.319H482.014ZM523.699 145.043C517.919 145.043 513.141 143.701 509.364 141.016C505.632 138.285 503.607 134.303 503.289 129.07H519.398C519.626 131.846 520.855 133.234 523.084 133.234C523.904 133.234 524.586 133.052 525.132 132.688C525.724 132.278 526.02 131.664 526.02 130.845C526.02 129.707 525.405 128.797 524.177 128.114C522.948 127.386 521.037 126.567 518.443 125.657C515.348 124.565 512.777 123.495 510.729 122.449C508.727 121.402 506.998 119.878 505.541 117.875C504.085 115.873 503.38 113.302 503.425 110.162C503.425 107.022 504.222 104.36 505.814 102.175C507.453 99.9453 509.66 98.2616 512.436 97.1239C515.257 95.9862 518.42 95.4174 521.924 95.4174C527.84 95.4174 532.527 96.7826 535.986 99.513C539.49 102.243 541.333 106.089 541.515 111.049H525.2C525.155 109.684 524.814 108.705 524.177 108.114C523.539 107.522 522.766 107.226 521.856 107.226C521.219 107.226 520.695 107.454 520.286 107.909C519.876 108.319 519.671 108.91 519.671 109.684C519.671 110.776 520.263 111.686 521.446 112.414C522.675 113.097 524.609 113.939 527.248 114.94C530.297 116.078 532.8 117.17 534.757 118.216C536.759 119.263 538.489 120.719 539.945 122.585C541.401 124.451 542.129 126.795 542.129 129.616C542.129 132.574 541.401 135.236 539.945 137.603C538.489 139.923 536.373 141.744 533.597 143.063C530.821 144.383 527.521 145.043 523.699 145.043Z" fill="white"/>
</svg>